<svg width="22" height="22" viewBox="0 0 22 22" fill="none" xmlns="http://www.w3.org/2000/svg">
<g clip-path="url(#clip0_13_4984)">
<rect width="22" height="22" fill="white"/>
<path fill-rule="evenodd" clip-rule="evenodd" d="M0.833691 6.76179C2.5287 2.6688 6.5225 0 10.9526 0C16.9977 0.00554998 21.8975 4.90375 21.9049 10.9489C21.9062 15.379 19.2386 19.3736 15.1462 21.0699C11.0537 22.7661 6.34238 21.8299 3.20935 18.6979C0.0763297 15.5658 -0.861315 10.8548 0.833691 6.76179ZM1.00761 10.9485C1.00761 16.441 5.46014 20.8935 10.9526 20.8935C16.4428 20.8879 20.8921 16.4387 20.8976 10.9485C20.8976 5.45601 16.4451 1.00347 10.9526 1.00347C5.46014 1.00347 1.00761 5.45601 1.00761 10.9485Z" fill="#190F14"/>
<path d="M11.0797 6.79586L6.15527 5.9834L6.40841 7.00624C6.41313 7.08989 6.46697 7.16151 6.54301 7.18456L9.47251 7.91286C9.54902 7.93641 9.60333 8.00854 9.60711 8.09319L9.54079 12.1415L8.99393 15.4976L8.47085 18.2943H9.60711C9.73321 18.2943 9.83899 18.1947 9.85364 18.0619L11.0792 12.9224" fill="#190F14"/>
<path d="M11.0797 6.79586L6.15527 5.9834L6.40841 7.00624C6.41313 7.08989 6.46697 7.16151 6.54301 7.18456L9.47251 7.91286C9.54902 7.93641 9.60333 8.00854 9.60711 8.09319L9.54079 12.1415L8.99393 15.4976L8.47085 18.2943H9.60711C9.73321 18.2943 9.83899 18.1947 9.85364 18.0619L11.0792 12.9224" stroke="#7F7F72" stroke-width="0.1" stroke-linecap="round" stroke-linejoin="round"/>
<path d="M11.0795 6.79586L16.0039 5.9834L15.7508 7.00624C15.746 7.08989 15.6922 7.16151 15.6162 7.18456L12.6867 7.91286C12.6102 7.93641 12.5558 8.00854 12.5521 8.09319L12.6184 12.1415L13.1652 15.4976L13.6883 18.2943H12.5521C12.426 18.2943 12.3202 18.1947 12.3055 18.0619L11.08 12.9224" fill="#190F14"/>
<path d="M11.0795 6.79586L16.0039 5.9834L15.7508 7.00624C15.746 7.08989 15.6922 7.16151 15.6162 7.18456L12.6867 7.91286C12.6102 7.93641 12.5558 8.00854 12.5521 8.09319L12.6184 12.1415L13.1652 15.4976L13.6883 18.2943H12.5521C12.426 18.2943 12.3202 18.1947 12.3055 18.0619L11.08 12.9224" stroke="#7F7F72" stroke-width="0.1" stroke-linecap="round" stroke-linejoin="round"/>
<path d="M11.0873 5.7437C11.5727 5.7437 11.9663 5.35336 11.9663 4.87185C11.9663 4.39034 11.5727 4 11.0873 4C10.6018 4 10.2083 4.39034 10.2083 4.87185C10.2083 5.35336 10.6018 5.7437 11.0873 5.7437Z" fill="#190F14" stroke="#7F7F72" stroke-width="0.1" stroke-linecap="round" stroke-linejoin="round"/>
</g>
<defs>
<clipPath id="clip0_13_4984">
<rect width="22" height="22" fill="white"/>
</clipPath>
</defs>
</svg>
